<?xml version="1.0" encoding="UTF-8"?>
<svg id="_레이어_1" data-name="레이어 1" xmlns="http://www.w3.org/2000/svg" width="49" height="49" viewBox="0 0 49 49">
  <defs>
    <style>
      .cls-1 {
        fill: #fff;
      }

      .cls-1, .cls-2 {
        fill-rule: evenodd;
      }

      .cls-2, .cls-3 {
        fill: #4e2a1b;
      }
    </style>
  </defs>
  <circle class="cls-3" cx="24.5" cy="24.5" r="24.5"/>
  <path class="cls-2" d="m23.74,1c11.92-.15,18.78,5.96,22.33,14.15,2.26,5.22,2.74,12.62.34,18.19-2.64,6.14-7.4,10.27-13.51,13.14-2.01.94-3.84,1.26-6.87,1.46-.62.04-2.94.09-3.59.01-3.54-.43-2.71-.46-2.71-.46-1.52-.57-3.16-.99-4.5-1.57-6.94-3-11.11-8.04-13.4-15.72-.7-2.35-1.18-6.63-.49-9.54.39-1.65.55-3.01,1.16-4.5,2.55-6.23,7.02-10.84,13.17-13.48,1.45-.62,3.08-1.15,4.73-1.35,2.1-.25,2.98-.32,3.34-.34Z"/>
  <path class="cls-1" d="m27.49,11.45s-.72.02-1.13.11c-1.11.26-2.41.41-3.38.9-4.56,2.29-7.76,5.72-9.23,11.12-1.09,3.99-.32,10.82,3.65,10.81.33-.19.4-.17.4-.7-.04-.45.12-4.95.11-3.93,0,.32-.05-1.56,1.01-4.21.83-2.08,3.15-3.16,5.1-4.33.34-.11.87-.67,1.21-.78,3.05-1.8,6.32-3.55,8.78-5.95q.21-.43,0-1.01c-1.79-1.84-2.86-2.04-6.53-2.02Z"/>
  <path class="cls-1" d="m34.92,15.38c-.12.08-.11.07-.34.11-.96,1.23-2.14,2.76-3.49,3.59-3.77,2.34-8.59,3.67-10.92,7.41-.67,1.07-1.58,4.96-1.13,6.96.15.65.32,1.54.97,2.02,2.29,1.39,4.53.94,7.03-.11,4.72-1.99,7.79-6.01,9.68-10.78.95-2.38.82-8.33-1.35-9.1-.13-.09-.19-.09-.45-.11Z"/>
</svg>